<svg width="122" height="37" viewBox="0 0 122 37" fill="none" xmlns="http://www.w3.org/2000/svg">
<path d="M31.3298 9.4067C31.1177 9.19425 30.8659 9.02571 30.5886 8.91071C30.3113 8.79572 30.014 8.73653 29.7138 8.73653C29.4136 8.73653 29.1164 8.79572 28.8391 8.91071C28.5618 9.02571 28.3099 9.19425 28.0978 9.4067C26.7066 10.7944 24.8217 11.5737 22.8567 11.5737C20.8917 11.5737 19.0069 10.7944 17.6156 9.4067C15.3662 7.16369 12.3191 5.90411 9.14248 5.90411C5.96584 5.90411 2.9188 7.16369 0.669367 9.4067C0.240779 9.83529 0 10.4166 0 11.0227C0 11.6288 0.240779 12.2101 0.669367 12.6387C1.09796 13.0673 1.67925 13.3081 2.28536 13.3081C2.89148 13.3081 3.47277 13.0673 3.90135 12.6387C4.75621 11.7838 5.77563 11.2124 6.85677 10.865V28.7552C6.85677 29.3614 7.09759 29.9428 7.52624 30.3714C7.95489 30.8001 8.53627 31.0409 9.14248 31.0409C9.74869 31.0409 10.3301 30.8001 10.7587 30.3714C11.1874 29.9428 11.4282 29.3614 11.4282 28.7552V10.8673C12.5407 11.2131 13.5541 11.8206 14.3836 12.6387C16.0711 14.3277 18.2265 15.4719 20.571 15.9232V28.7552C20.571 29.3614 20.8118 29.9428 21.2405 30.3714C21.6691 30.8001 22.2505 31.0409 22.8567 31.0409C23.4629 31.0409 24.0443 30.8001 24.473 30.3714C24.9016 29.9428 25.1424 29.3614 25.1424 28.7552V15.9232C27.4873 15.4728 29.6429 14.3285 31.3298 12.6387C31.5423 12.4266 31.7108 12.1747 31.8258 11.8974C31.9408 11.6201 32 11.3229 32 11.0227C32 10.7225 31.9408 10.4253 31.8258 10.148C31.7108 9.87068 31.5423 9.61878 31.3298 9.4067Z" fill="url(#paint0_linear_216_28)"/>
<path d="M54.328 15.4801C54.328 16.4561 54.104 17.3521 53.656 18.1681C53.208 18.9681 52.52 19.6161 51.592 20.1121C50.664 20.6081 49.512 20.8561 48.136 20.8561H45.592V26.9041H41.488V10.0561H48.136C49.48 10.0561 50.616 10.2881 51.544 10.7521C52.472 11.2161 53.168 11.8561 53.632 12.6721C54.096 13.4881 54.328 14.4241 54.328 15.4801ZM47.824 17.5921C48.608 17.5921 49.192 17.4081 49.576 17.0401C49.96 16.6721 50.152 16.1521 50.152 15.4801C50.152 14.8081 49.96 14.2881 49.576 13.9201C49.192 13.5521 48.608 13.3681 47.824 13.3681H45.592V17.5921H47.824ZM58.5286 12.1201C57.8086 12.1201 57.2166 11.9121 56.7526 11.4961C56.3046 11.0641 56.0806 10.5361 56.0806 9.91211C56.0806 9.27211 56.3046 8.74411 56.7526 8.32811C57.2166 7.89611 57.8086 7.68011 58.5286 7.68011C59.2326 7.68011 59.8086 7.89611 60.2566 8.32811C60.7206 8.74411 60.9526 9.27211 60.9526 9.91211C60.9526 10.5361 60.7206 11.0641 60.2566 11.4961C59.8086 11.9121 59.2326 12.1201 58.5286 12.1201ZM60.5686 13.5121V26.9041H56.4646V13.5121H60.5686ZM62.8467 18.4561C62.8467 16.7921 63.2067 15.3121 63.9267 14.0161C64.6467 12.7041 65.6467 11.6881 66.9267 10.9681C68.2227 10.2321 69.6867 9.86411 71.3187 9.86411C73.3187 9.86411 75.0307 10.3921 76.4547 11.4481C77.8787 12.5041 78.8307 13.9441 79.3107 15.7681H74.7987C74.4627 15.0641 73.9827 14.5281 73.3587 14.1601C72.7507 13.7921 72.0547 13.6081 71.2707 13.6081C70.0067 13.6081 68.9827 14.0481 68.1987 14.9281C67.4147 15.8081 67.0227 16.9841 67.0227 18.4561C67.0227 19.9281 67.4147 21.1041 68.1987 21.9841C68.9827 22.8641 70.0067 23.3041 71.2707 23.3041C72.0547 23.3041 72.7507 23.1201 73.3587 22.7521C73.9827 22.3841 74.4627 21.8481 74.7987 21.1441H79.3107C78.8307 22.9681 77.8787 24.4081 76.4547 25.4641C75.0307 26.5041 73.3187 27.0241 71.3187 27.0241C69.6867 27.0241 68.2227 26.6641 66.9267 25.9441C65.6467 25.2081 64.6467 24.1921 63.9267 22.8961C63.2067 21.6001 62.8467 20.1201 62.8467 18.4561ZM87.9199 27.0961C86.6079 27.0961 85.4239 26.8161 84.3679 26.2561C83.3279 25.6961 82.5039 24.8961 81.8959 23.8561C81.3039 22.8161 81.0079 21.6001 81.0079 20.2081C81.0079 18.8321 81.3119 17.6241 81.9199 16.5841C82.5279 15.5281 83.3599 14.7201 84.4159 14.1601C85.4719 13.6001 86.6559 13.3201 87.9679 13.3201C89.2799 13.3201 90.4639 13.6001 91.5199 14.1601C92.5759 14.7201 93.4079 15.5281 94.0159 16.5841C94.6239 17.6241 94.9279 18.8321 94.9279 20.2081C94.9279 21.5841 94.6159 22.8001 93.9919 23.8561C93.3839 24.8961 92.5439 25.6961 91.4719 26.2561C90.4159 26.8161 89.2319 27.0961 87.9199 27.0961ZM87.9199 23.5441C88.7039 23.5441 89.3679 23.2561 89.9119 22.6801C90.4719 22.1041 90.7519 21.2801 90.7519 20.2081C90.7519 19.1361 90.4799 18.3121 89.9359 17.7361C89.4079 17.1601 88.7519 16.8721 87.9679 16.8721C87.1679 16.8721 86.5039 17.1601 85.9759 17.7361C85.4479 18.2961 85.1839 19.1201 85.1839 20.2081C85.1839 21.2801 85.4399 22.1041 85.9519 22.6801C86.4799 23.2561 87.1359 23.5441 87.9199 23.5441ZM114.193 13.3681C115.857 13.3681 117.177 13.8721 118.153 14.8801C119.145 15.8881 119.641 17.2881 119.641 19.0801V26.9041H115.561V19.6321C115.561 18.7681 115.329 18.1041 114.865 17.6401C114.417 17.1601 113.793 16.9201 112.993 16.9201C112.193 16.9201 111.561 17.1601 111.097 17.6401C110.649 18.1041 110.425 18.7681 110.425 19.6321V26.9041H106.345V19.6321C106.345 18.7681 106.113 18.1041 105.649 17.6401C105.201 17.1601 104.577 16.9201 103.777 16.9201C102.977 16.9201 102.345 17.1601 101.881 17.6401C101.433 18.1041 101.209 18.7681 101.209 19.6321V26.9041H97.1052V13.5121H101.209V15.1921C101.625 14.6321 102.169 14.1921 102.841 13.8721C103.513 13.5361 104.273 13.3681 105.121 13.3681C106.129 13.3681 107.025 13.5841 107.809 14.0161C108.609 14.4481 109.233 15.0641 109.681 15.8641C110.145 15.1281 110.777 14.5281 111.577 14.0641C112.377 13.6001 113.249 13.3681 114.193 13.3681Z" fill="black"/>
<defs>
<linearGradient id="paint0_linear_216_28" x1="0" y1="5.90411" x2="24.4217" y2="36.9938" gradientUnits="userSpaceOnUse">
<stop stop-color="#F5853F"/>
<stop offset="1" stop-color="#FF4975"/>
</linearGradient>
</defs>
</svg>
